<?xml version="1.0" encoding="UTF-8" standalone="no"?>
<!-- Created with Inkscape (http://www.inkscape.org/) -->

<svg
   version="1.1"
   id="svg2"
   width="384.65332"
   height="125.45333"
   viewBox="0 0 384.65332 125.45333"
   sodipodi:docname="bib.eps"
   xmlns:inkscape="http://www.inkscape.org/namespaces/inkscape"
   xmlns:sodipodi="http://sodipodi.sourceforge.net/DTD/sodipodi-0.dtd"
   xmlns="http://www.w3.org/2000/svg"
   xmlns:svg="http://www.w3.org/2000/svg">
  <defs
     id="defs6" />
  <sodipodi:namedview
     id="namedview4"
     pagecolor="#ffffff"
     bordercolor="#000000"
     borderopacity="0.25"
     inkscape:showpageshadow="2"
     inkscape:pageopacity="0.0"
     inkscape:pagecheckerboard="0"
     inkscape:deskcolor="#d1d1d1" />
  <g
     id="g8"
     inkscape:groupmode="layer"
     inkscape:label="ink_ext_XXXXXX"
     transform="matrix(1.3333333,0,0,-1.3333333,0,125.45333)">
    <g
       id="g10"
       transform="scale(0.1)">
      <path
         d="M 320.629,545.754 H 0 L 0.0117188,523.777 H 321.188 c -0.86,4.118 -1.317,8.391 -1.317,12.782 0,3.136 0.309,6.191 0.758,9.195"
         style="fill:#008798;fill-opacity:1;fill-rule:nonzero;stroke:none"
         id="path12" />
      <path
         d="m 910.117,545.508 -149.664,0.246 H 453.191 c 0.422,-3 0.715,-6.051 0.715,-9.195 0,-4.407 -0.445,-8.672 -1.261,-12.782 h 307.808 150.262 c -0.856,4.118 -1.317,8.391 -1.317,12.782 0,3.05 0.293,6.023 0.719,8.949"
         style="fill:#008798;fill-opacity:1;fill-rule:nonzero;stroke:none"
         id="path14" />
      <path
         d="m 1290.55,940.918 c 318.09,-19.191 556.86,-99.871 556.86,-196.504 0,-110.937 -314.65,-199.285 -702.88,-199.285 l -101.74,0.164 c 0.38,-2.855 0.64,-5.75 0.64,-8.734 0,-4.407 -0.44,-8.672 -1.26,-12.782 h 154.62 l 46.65,0.071 c 426.02,0 771.31,93.465 771.31,208.757 0,110.997 -320.17,201.731 -724.2,208.313"
         style="fill:#008798;fill-opacity:1;fill-rule:nonzero;stroke:none"
         id="path16" />
      <path
         d="m 2194.97,546.41 h -251.19 l -196.62,0.113 c -388.12,0 -700.02,68.938 -700.02,161.79 0,29.839 32.68,57.847 89.75,82.136 V 630.32 l 296.64,-37.793 v 12.391 l -0.27,0.016 c -8.02,0.359 -197.6,9.761 -275.5,79.429 l -1.57,3.137 v 110.719 11.972 22.118 C 987.336,800.273 879.797,752.207 879.797,698.43 c 0,-96.504 345.603,-174.731 771.643,-174.731 l 46.62,-0.054 h 245.75 251.63 c -0.87,4.16 -1.33,8.472 -1.33,12.914 0,3.367 0.35,6.64 0.86,9.851"
         style="fill:#1c4f9c;fill-opacity:1;fill-rule:nonzero;stroke:none"
         id="path18" />
      <path
         d="m 1604.4,872.773 c -155.86,-2.117 -299.17,-14.75 -416.56,-34.765 10.37,-6.957 22.08,-13.164 34.64,-18.692 98.23,26.664 231.19,45.844 381.92,53.457"
         style="fill:#1c4f9c;fill-opacity:1;fill-rule:nonzero;stroke:none"
         id="path20" />
      <path
         d="m 2327.32,546.41 c 0.48,-3.207 0.81,-6.472 0.81,-9.851 0,-4.454 -0.45,-8.766 -1.28,-12.914 h 555.04 l 0.01,22.765 h -554.58"
         style="fill:#1c4f9c;fill-opacity:1;fill-rule:nonzero;stroke:none"
         id="path22" />
      <path
         d="m 1735.53,810.137 -1.17,-125.774 c -77.89,-69.668 -267.38,-79.07 -275.41,-79.429 l -0.27,-0.016 v -12.391 l 296.53,37.793 v 182.375 l -19.68,-2.558"
         style="fill:#008798;fill-opacity:1;fill-rule:nonzero;stroke:none"
         id="path24" />
      <path
         d="m 1183.74,687.5 c 71.09,-68.352 249.97,-77.129 249.97,-77.129 v 159.5 c 0,0 -178.88,8.774 -249.97,77.133 V 687.5"
         style="fill:#008798;fill-opacity:1;fill-rule:nonzero;stroke:none"
         id="path26" />
      <path
         d="m 1708.17,687.5 c -71,-68.352 -249.87,-77.129 -249.87,-77.129 v 159.5 c 0,0 178.87,8.774 249.87,77.133 V 687.5"
         style="fill:#008798;fill-opacity:1;fill-rule:nonzero;stroke:none"
         id="path28" />
      <path
         d="m 1204.91,701.887 c 65.07,-68.352 228.8,-89.707 228.8,-89.707 v 175.222 c 0,0 -163.73,8.789 -228.8,77.129 V 701.887"
         style="fill:#4eadb3;fill-opacity:1;fill-rule:nonzero;stroke:none"
         id="path30" />
      <path
         d="M 1687,701.887 C 1622.05,633.535 1458.3,612.18 1458.3,612.18 v 175.222 c 0,0 163.75,8.789 228.7,77.129 V 701.887"
         style="fill:#4eadb3;fill-opacity:1;fill-rule:nonzero;stroke:none"
         id="path32" />
      <path
         d="m 2602.69,1.875 c 0.97,30.9766 2.4,62.1094 0.91,104.883 h 34.13 c -1.61,-34.9221 -1.64,-69.9807 -0.59,-104.883 h -34.45"
         style="fill:#7d8ec8;fill-opacity:1;fill-rule:nonzero;stroke:none"
         id="path34" />
      <path
         d="m 2738.26,38.8281 h 0.31 c 0.44,10.0586 0.95,49.5313 0.31,67.9299 h 30.04 c -0.57,-10.7033 -2.65,-77.3635 -2.16,-104.883 h -38.39 c -12.91,22.8125 -28.13,44.4922 -40.07,66.6602 h -0.32 c -0.14,-9.4141 -0.58,-50.9375 -0.04,-66.6602 h -30.19 c 1.45,16.6797 2.73,74.6875 1.68,104.883 h 39.33 l 39.5,-67.9299"
         style="fill:#7d8ec8;fill-opacity:1;fill-rule:nonzero;stroke:none"
         id="path36" />
      <path
         d="M 2875.42,2.36328 C 2865.87,0.9375 2856,0 2846.25,0 c -24.7,0 -59.67,10.3711 -61.11,51.4063 -1.34,38.2031 27.89,57.2267 63.29,57.2267 9.44,0 18.92,-1.25 28.25,-2.832 l 1.94,-23.8869 c -8.09,1.875 -16.33,3.7695 -24.67,3.7695 -26.59,0 -36.33,-18.2422 -35.78,-33.9648 0.66,-19.1797 14.69,-28.7696 32.63,-28.7696 9.59,0 18.8,1.8946 27.85,4.2383 l -3.23,-24.82422"
         style="fill:#7d8ec8;fill-opacity:1;fill-rule:nonzero;stroke:none"
         id="path38" />
      <path
         d="m 101.461,195.039 h 44.461 c 67.441,0 80.215,27.617 80.215,53.652 0,24.024 -18.399,50.098 -76.66,50.098 h -48.016 z m 0,145.664 h 35.769 c 54.153,0 68.477,28.106 68.477,52.11 0,26.582 -21.465,42.441 -62.352,42.441 H 101.461 Z M 25.8164,445.977 c 0,14.296 -6.125,20.961 -23.51562,21.449 v 9.726 H 187.309 c 32.707,0 90.976,-17.386 90.976,-78.207 0,-39.336 -31.172,-65.41 -68.496,-74.609 v -1.035 c 47.52,-1.524 91.992,-24.004 91.992,-76.621 0,-75.157 -82.781,-93.535 -114.472,-93.535 H 2.30078 v 9.687 C 19.6914,163.379 25.8164,170 25.8164,184.316 v 261.661"
         style="fill:#1c4f9c;fill-opacity:1;fill-rule:nonzero;stroke:none"
         id="path40" />
      <path
         d="m 332.465,159.766 c 8.691,0 23.515,3.613 23.515,22.48 v 163.047 c 0,20.449 -11.25,23.516 -23.515,23.516 v 9.687 c 33.711,4.102 72.578,14.824 93.008,25.586 V 184.824 c 0,-22.988 12.793,-25.058 23.515,-25.058 v -9.688 c -19.414,1.543 -38.836,3.067 -57.754,3.067 -19.421,0 -38.339,-1.524 -58.769,-3.067 v 9.688"
         style="fill:#1c4f9c;fill-opacity:1;fill-rule:nonzero;stroke:none"
         id="path42" />
      <path
         d="m 686.137,267.617 c 0,49.063 -19.961,79.707 -53.164,79.707 -40.36,0 -57.235,-28.613 -57.235,-78.164 0,-56.719 26.063,-82.324 55.711,-82.324 32.707,0 54.688,31.719 54.688,80.781 z M 480.16,462.227 c 35.274,3.55 66.953,13.785 97.11,28.101 V 364.219 c 19.941,19.902 43.457,32.168 70.527,32.168 65.918,0 107.832,-58.262 107.832,-121.602 0,-81.777 -63.359,-129.844 -122.156,-129.844 -45.996,0 -69.493,17.403 -89.426,41.407 -11.758,-13.789 -21.992,-27.071 -34.238,-36.27 h -8.184 c 4.621,21.445 6.152,63.34 6.152,83.809 v 176.211 c 0,37.304 -8.203,38.828 -27.617,42.402 v 9.727"
         style="fill:#1c4f9c;fill-opacity:1;fill-rule:nonzero;stroke:none"
         id="path44" />
      <path
         d="m 775.297,159.766 c 14.824,0 23.516,4.101 23.516,31.718 v 218.614 c 0,37.304 -8.192,38.828 -23.516,42.402 v 9.727 c 31.183,3.55 62.851,13.785 94.551,28.101 0,-13.281 -1.532,-27.613 -1.532,-42.437 V 191.484 c 0,-27.617 8.672,-31.718 29.618,-31.718 v -9.688 c -24.512,1.543 -42.391,3.067 -64.375,3.067 -21.993,0 -39.871,-1.524 -58.262,-3.067 v 9.688"
         style="fill:#1c4f9c;fill-opacity:1;fill-rule:nonzero;stroke:none"
         id="path46" />
      <path
         d="m 924.57,159.766 c 8.7,0 23.528,3.613 23.528,22.48 v 163.047 c 0,20.449 -11.243,23.516 -23.528,23.516 v 9.687 c 33.731,4.102 72.578,14.824 93.02,25.586 V 184.824 c 0,-22.988 12.79,-25.058 23.51,-25.058 v -9.688 c -19.42,1.543 -38.83,3.067 -57.748,3.067 -19.426,0 -38.34,-1.524 -58.782,-3.067 v 9.688"
         style="fill:#1c4f9c;fill-opacity:1;fill-rule:nonzero;stroke:none"
         id="path48" />
      <path
         d="m 1193.87,186.836 c 33.75,0 49.09,34.785 49.09,63.398 0,38.34 -10.24,101.192 -59.3,101.192 -33.73,0 -49.07,-34.746 -49.07,-63.36 0,-38.339 10.23,-101.23 59.28,-101.23 z m -7.65,-41.895 c -83.3,0 -121.12,67.989 -121.12,127.774 0,70 51.6,123.672 126.21,123.672 83.4,0 121.24,-67.949 121.24,-127.774 0,-70.019 -51.64,-123.672 -126.33,-123.672"
         style="fill:#1c4f9c;fill-opacity:1;fill-rule:nonzero;stroke:none"
         id="path50" />
      <path
         d="m 1339.76,159.766 c 13.81,0 22.5,4.101 22.5,31.718 v 153.809 c 0,20.449 -11.23,23.516 -23.5,23.516 v 9.687 c 27.09,5.625 60.82,13.828 90.01,25.586 l -1.03,-52.168 h 1.03 c 11.24,30.684 41.91,44.473 67.48,44.473 32.7,0 51.6,-11.231 63.35,-44.961 12.78,27.617 39.36,44.961 68.49,44.961 49.05,0 77.17,-17.344 77.17,-86.875 V 186.348 c 0,-18.379 6.65,-26.582 23.51,-26.582 v -9.688 c -15.34,1.543 -30.15,3.067 -46.51,3.067 -15.84,0 -31.17,-1.524 -48.54,-3.067 0.49,14.824 2.03,54.16 2.03,121.641 v 32.715 c 0,25 -10.73,37.793 -30.67,37.793 -18.4,0 -35.25,-14.825 -35.25,-44.961 V 181.758 c 0,-17.891 13.79,-21.992 28.61,-21.992 v -9.688 c -22.98,1.543 -41.89,3.067 -60.82,3.067 -21.96,0 -40.86,-1.524 -59.78,-3.067 v 9.688 c 13.79,0 22.48,4.101 22.48,31.718 v 118.028 c 0,24.023 -10.73,32.715 -28.11,32.715 -21.97,0 -40.37,-21.993 -40.37,-49.551 V 181.758 c 0,-17.891 13.81,-21.992 24.53,-21.992 v -9.688 c -18.89,1.543 -37.82,3.067 -56.79,3.067 -21.97,0 -40.89,-1.524 -59.82,-3.067 v 9.688"
         style="fill:#1c4f9c;fill-opacity:1;fill-rule:nonzero;stroke:none"
         id="path52" />
      <path
         d="m 1921.98,269.648 c -75.13,-12.246 -93.01,-24.511 -93.01,-48.554 0,-20.43 15.84,-31.153 36.27,-31.153 24.55,0 56.74,23.477 56.74,55.704 z M 1789.1,379.531 c 27.59,9.727 57.23,16.856 92,16.856 59.29,0 110.37,-15.332 110.37,-88.887 V 184.316 c 0,-17.382 10.22,-24.55 26.58,-24.55 v -9.688 c -15.32,1.543 -30.65,3.067 -45.48,3.067 -13.81,0 -29.13,-1.524 -44.46,-3.067 v 38.828 l -1.02,-0.527 c -25.54,-37.305 -48.56,-43.438 -92.51,-43.438 -43.95,0 -75.12,27.09 -75.12,71.543 0,69.024 66.94,76.68 111.92,82.305 47.01,5.645 50.6,7.168 50.6,22.988 0,26.075 -21.98,35.762 -46.52,35.762 -40.88,0 -60.3,-10.215 -78.7,-47.519 h -9.69 l 2.03,69.511"
         style="fill:#1c4f9c;fill-opacity:1;fill-rule:nonzero;stroke:none"
         id="path54" />
      <path
         d="m 2030.92,352.461 v 38.828 h 27.6 v 34.238 c 18.9,7.657 41.39,24.024 56.2,40.375 h 13.29 v -74.613 h 55.72 v -38.828 h -55.72 V 227.754 c 0,-26.582 11.76,-37.813 31.18,-37.813 12.28,0 22.48,4.61 30.68,11.231 l -5.63,-44.473 c -15.32,-7.656 -33.23,-11.758 -53.16,-11.758 -61.84,0 -72.56,39.375 -72.56,77.188 v 130.332 h -27.6"
         style="fill:#1c4f9c;fill-opacity:1;fill-rule:nonzero;stroke:none"
         id="path56" />
      <path
         d="m 2205.19,159.766 c 8.69,0 23.52,3.613 23.52,22.48 v 163.047 c 0,20.449 -11.24,23.516 -23.52,23.516 v 9.687 c 33.74,4.102 72.58,14.824 93.03,25.586 V 184.824 c 0,-22.988 12.77,-25.058 23.51,-25.058 v -9.688 c -19.41,1.543 -38.85,3.067 -57.75,3.067 -19.41,0 -38.34,-1.524 -58.79,-3.067 v 9.688"
         style="fill:#1c4f9c;fill-opacity:1;fill-rule:nonzero;stroke:none"
         id="path58" />
      <path
         d="m 2481.69,186.836 c 33.73,0 49.07,34.785 49.07,63.398 0,38.34 -10.24,101.192 -59.29,101.192 -33.73,0 -49.06,-34.746 -49.06,-63.36 0,-38.339 10.22,-101.23 59.28,-101.23 z m -7.68,-41.895 c -83.3,0 -121.09,67.989 -121.09,127.774 0,70 51.6,123.672 126.23,123.672 83.3,0 121.1,-67.949 121.1,-127.774 0,-70.019 -51.61,-123.672 -126.24,-123.672"
         style="fill:#1c4f9c;fill-opacity:1;fill-rule:nonzero;stroke:none"
         id="path60" />
      <path
         d="m 2637.59,159.766 c 13.79,0 22.48,4.101 22.48,31.718 v 153.809 c 0,20.449 -11.26,23.516 -23.51,23.516 v 9.687 c 27.07,5.625 60.82,13.828 89.94,25.586 l -1.02,-52.168 h 1.02 c 11.24,30.684 41.92,44.473 67.47,44.473 39.86,0 67.44,-17.344 67.44,-85.332 V 186.348 c 0,-18.379 6.66,-26.582 23.52,-26.582 v -9.688 c -15.33,1.543 -30.14,3.067 -46.5,3.067 -16.87,0 -31.69,-1.524 -46.51,-3.067 v 150.254 c 0,35.234 -14.31,41.895 -30.67,41.895 -23.51,0 -31.68,-28.614 -31.68,-51.094 V 181.758 c 0,-17.891 13.8,-21.992 24.53,-21.992 v -9.688 c -18.9,1.543 -37.81,3.067 -56.72,3.067 -21.98,0 -40.89,-1.524 -59.79,-3.067 v 9.688"
         style="fill:#1c4f9c;fill-opacity:1;fill-rule:nonzero;stroke:none"
         id="path62" />
      <path
         d="m 1048.06,65.3828 c -8.78,0 -15.05,-6.7617 -15.05,-17.4023 0,-9.0274 5.12,-16.543 14.94,-16.543 5.75,0 10.87,3.2422 12.75,8.5508 0.53,1.4258 0.74,3.0469 0.74,4.4765 v 8.2618 c 0,1.4218 -0.11,2.6718 -0.53,3.7109 -1.67,4.9414 -6.06,8.9453 -12.85,8.9453"
         style="fill:#1c4f9c;fill-opacity:1;fill-rule:nonzero;stroke:none"
         id="path64" />
      <path
         d="m 1607.68,65.8516 c -9.41,0 -13.38,-7.6993 -14.12,-13.4961 h 26.87 c 0.1,5.2343 -2.4,13.4961 -12.75,13.4961"
         style="fill:#1c4f9c;fill-opacity:1;fill-rule:nonzero;stroke:none"
         id="path66" />
      <path
         d="m 1235.62,65.5586 c -10.76,0 -15.47,-9.1211 -15.47,-17.7773 0,-10.0782 6.27,-17.6758 15.27,-17.6758 8.77,0 15.36,7.5 15.36,17.875 0,7.7929 -4.28,17.5781 -15.16,17.5781"
         style="fill:#1c4f9c;fill-opacity:1;fill-rule:nonzero;stroke:none"
         id="path68" />
      <path
         d="m 342.27,37.9961 c 0,-5.5078 3.968,-7.9844 8.57,-7.9844 6.687,0 10.976,3.8047 12.441,7.6914 0.313,0.9571 0.414,1.9141 0.414,2.6797 v 7.9688 C 353.66,48.5469 342.27,46.9258 342.27,37.9961"
         style="fill:#1c4f9c;fill-opacity:1;fill-rule:nonzero;stroke:none"
         id="path70" />
      <path
         d="m 802.48,37.9961 c 0,-5.5078 3.969,-7.9844 8.571,-7.9844 6.687,0 10.976,3.8047 12.441,7.6914 0.313,0.9571 0.414,1.9141 0.414,2.6797 v 7.9688 C 813.871,48.5469 802.48,46.9258 802.48,37.9961"
         style="fill:#1c4f9c;fill-opacity:1;fill-rule:nonzero;stroke:none"
         id="path72" />
      <path
         d="m 1825.77,65.8516 c -9.42,0 -13.38,-7.6993 -14.12,-13.4961 h 26.87 c 0.1,5.2343 -2.4,13.4961 -12.75,13.4961"
         style="fill:#1c4f9c;fill-opacity:1;fill-rule:nonzero;stroke:none"
         id="path74" />
      <path
         d="m 1413.93,65.1875 c -6.27,0 -12.23,-3.9883 -13.89,-10.2773 -0.31,-1.0313 -0.62,-2.2813 -0.62,-3.3164 v -7.9883 c 0,-1.2344 0.1,-2.3828 0.41,-3.418 1.68,-5.8008 7.21,-9.7891 13.79,-9.7891 9.72,0 15.37,7.2071 15.37,17.7774 0,9.1211 -5.33,17.0117 -15.06,17.0117"
         style="fill:#1c4f9c;fill-opacity:1;fill-rule:nonzero;stroke:none"
         id="path76" />
      <path
         d="m 1895.26,65.2813 c -9.51,0 -15.16,-7.6172 -15.16,-17.6758 0,-9.3164 5.14,-17.0313 14.96,-17.0313 6.16,0 11.8,3.8125 13.48,9.9844 0.31,1.1523 0.41,2.2852 0.41,3.6133 v 7.9844 c 0,1.0585 -0.1,2.4843 -0.41,3.5195 -1.37,5.2305 -6.37,9.6055 -13.28,9.6055"
         style="fill:#1c4f9c;fill-opacity:1;fill-rule:nonzero;stroke:none"
         id="path78" />
      <path
         d="m 2074.05,65.8516 c -9.4,0 -13.38,-7.6993 -14.1,-13.4961 h 26.85 c 0.12,5.2343 -2.4,13.4961 -12.75,13.4961"
         style="fill:#1c4f9c;fill-opacity:1;fill-rule:nonzero;stroke:none"
         id="path80" />
      <path
         d="m 236.105,65.2813 c -6.167,0 -12.023,-4.004 -13.902,-10.2696 -0.312,-1.0351 -0.523,-2.1914 -0.523,-3.5195 v -8.1797 c 0,-1.0391 0.101,-2.0898 0.422,-3.0312 1.668,-5.8008 7.101,-9.8008 13.793,-9.8008 9.718,0 15.367,7.125 15.367,17.6953 0,9.2187 -5.227,17.1055 -15.157,17.1055"
         style="fill:#1c4f9c;fill-opacity:1;fill-rule:nonzero;stroke:none"
         id="path82" />
      <path
         d="m 512.813,65.8516 c -9.411,0 -13.379,-7.6993 -14.114,-13.4961 h 26.864 c 0.105,5.2343 -2.403,13.4961 -12.75,13.4961"
         style="fill:#1c4f9c;fill-opacity:1;fill-rule:nonzero;stroke:none"
         id="path84" />
      <path
         d="m 2362.47,65.8516 c -9.4,0 -13.38,-7.6993 -14.11,-13.4961 h 26.86 c 0.12,5.2343 -2.4,13.4961 -12.75,13.4961"
         style="fill:#1c4f9c;fill-opacity:1;fill-rule:nonzero;stroke:none"
         id="path86" />
      <path
         d="m 2421.94,23.8398 c -5.55,0 -10.67,1.3243 -14.22,3.2227 l 2.19,6.2656 c 2.83,-1.5039 7.63,-3.2226 12.22,-3.2226 6.59,0 9.73,2.9531 9.73,6.8359 0,4.0039 -2.62,6.0938 -9.3,8.3789 -9.2,3.0313 -13.49,7.5 -13.49,13.0078 0,7.4258 6.7,13.5196 17.46,13.5196 5.12,0 9.61,-1.25 12.34,-2.8555 l -2.2,-6.0938 c -1.98,1.1563 -5.65,2.7539 -10.36,2.7539 -5.43,0 -8.36,-2.8476 -8.36,-6.2656 0,-3.8125 2.93,-5.5078 9.52,-7.8945 8.67,-2.9453 13.28,-6.9297 13.28,-13.7891 0,-8.164 -7.01,-13.8633 -18.81,-13.8633 z m -38.15,22.5157 h -35.52 c 0.19,-11.3047 8.04,-15.9571 17.34,-15.9571 6.58,0 10.66,1.0391 14,2.3672 l 1.68,-5.9804 c -3.24,-1.3477 -8.88,-2.9454 -16.93,-2.9454 -15.59,0 -24.88,9.4141 -24.88,23.2774 0,13.8906 8.98,24.7305 23.73,24.7305 16.62,0 20.9,-13.125 20.9,-21.5821 0,-1.7187 -0.1,-2.9531 -0.32,-3.9101 z m -79.31,-15.7813 c 5.23,0 8.67,1.1563 11.29,2.1914 l 1.56,-6.2734 c -2.4,-1.0547 -7.74,-2.6524 -14.53,-2.6524 -15.26,0 -25.18,9.4141 -25.18,23.4727 0,14.1641 10.65,24.5352 27.17,24.5352 5.43,0 10.23,-1.25 12.75,-2.4844 l -2.09,-6.3672 c -2.2,1.0586 -5.64,2.1914 -10.66,2.1914 -11.6,0 -17.87,-7.8906 -17.87,-17.4062 0,-10.6407 7.52,-17.2071 17.56,-17.2071 z m -58.95,48.1094 c -3.34,0 -5.53,2.2852 -5.53,5.1328 0,2.8555 2.29,5.2383 5.75,5.2383 3.34,0 5.64,-2.2852 5.64,-5.2383 0,-2.8476 -2.21,-5.1328 -5.86,-5.1328 z m 4.81,-53.8125 h -9.2 v 46.0195 h 9.2 z m -53.38,0 h -8.79 l -19.24,46.0195 h 9.82 l 9.95,-25.7617 c 1.66,-4.2773 3.02,-8.0898 4.06,-11.875 h 0.33 c 1.13,3.7852 2.6,7.5977 4.28,11.875 l 9.82,25.7617 h 9.61 z m -49.24,38.8906 c -0.94,0.1914 -1.88,0.1914 -3.13,0.1914 -6.48,0 -11.07,-4.375 -12.34,-10.6406 -0.19,-1.1562 -0.31,-2.582 -0.31,-3.9102 V 24.8711 h -9.2 v 31.6602 c 0,5.4101 -0.1,10.0781 -0.41,14.3593 h 8.05 l 0.41,-9.1211 h 0.33 c 2.28,6.168 7.93,10.0782 14.1,10.0782 0.94,0 1.68,-0.1016 2.5,-0.1993 z m -52.34,-17.4062 h -35.53 c 0.19,-11.3047 8.05,-15.9571 17.34,-15.9571 6.58,0 10.67,1.0391 14.01,2.3672 l 1.68,-5.9804 c -3.25,-1.3477 -8.89,-2.9454 -16.94,-2.9454 -15.58,0 -24.88,9.4141 -24.88,23.2774 0,13.8906 8.98,24.7305 23.73,24.7305 16.62,0 20.9,-13.125 20.9,-21.5821 0,-1.7187 -0.1,-2.9531 -0.31,-3.9101 z m -93.75,-22.5157 c -6.78,0 -14.2,1.8907 -17.97,4.1797 l 2.4,6.9297 c 4.08,-2.3828 9.92,-4.1758 16.21,-4.1758 9.3,0 14.73,4.4688 14.73,10.9375 0,5.8946 -3.75,9.4102 -13.26,12.6368 -11.51,3.8046 -18.62,9.3125 -18.62,18.2578 0,9.9843 9.1,17.3828 22.8,17.3828 7.08,0 12.42,-1.5195 15.46,-3.125 l -2.52,-6.7578 c -2.18,1.2343 -6.89,3.0468 -13.26,3.0468 -9.63,0 -13.28,-5.2304 -13.28,-9.6054 0,-5.9805 4.28,-8.9297 14.01,-12.3477 11.91,-4.1953 17.87,-9.414 17.87,-18.8281 0,-9.8828 -7.95,-18.5313 -24.57,-18.5313 z m -91.31,1.0313 -0.41,7.9883 h -0.32 c -2.73,-5.1328 -8.78,-9.0196 -17.05,-9.0196 -12.22,0 -21.73,9.4141 -21.73,23.379 -0.1,15.3085 10.44,24.6289 22.67,24.6289 7.85,0 12.97,-3.3399 15.27,-6.9532 h 0.2 v 27.4766 h 9.1 V 36.7695 c 0,-4.1054 0.22,-8.75 0.41,-11.8984 z m -63.23,21.4844 h -35.54 c 0.21,-11.3047 8.04,-15.9571 17.34,-15.9571 6.6,0 10.67,1.0391 14.03,2.3672 l 1.66,-5.9804 c -3.25,-1.3477 -8.89,-2.9454 -16.94,-2.9454 -15.56,0 -24.86,9.4141 -24.86,23.2774 0,13.8906 8.98,24.7305 23.71,24.7305 16.62,0 20.92,-13.125 20.92,-21.5821 0,-1.7187 -0.12,-2.9531 -0.32,-3.9101 z m -65.11,-21.4844 h -40.96 v 4.8477 l 22.77,27.1054 c 2.31,2.5625 4.4,4.7461 6.7,7.2305 v 0.1758 h -27.38 v 6.6601 h 38.46 v -5.2383 l -22.58,-26.6992 c -2.19,-2.5742 -4.18,-4.9609 -6.49,-7.2226 v -0.1992 h 29.48 z m -70.96,53.8125 c -3.34,0 -5.53,2.2852 -5.53,5.1328 0,2.8555 2.29,5.2383 5.75,5.2383 3.34,0 5.64,-2.2852 5.64,-5.2383 0,-2.8476 -2.21,-5.1328 -5.86,-5.1328 z m 4.81,-53.8125 h -9.2 v 46.0195 h 9.2 z m -34.48,38.8906 c -0.93,0.1914 -1.87,0.1914 -3.14,0.1914 -6.47,0 -11.08,-4.375 -12.33,-10.6406 -0.21,-1.1562 -0.31,-2.582 -0.31,-3.9102 V 24.8711 h -9.2 v 31.6602 c 0,5.4101 -0.1,10.0781 -0.41,14.3593 h 8.05 l 0.41,-9.1211 h 0.31 c 2.31,6.168 7.95,10.0782 14.1,10.0782 0.96,0 1.68,-0.1016 2.52,-0.1993 z m -52.34,-17.4062 h -35.55 c 0.22,-11.3047 8.05,-15.9571 17.35,-15.9571 6.6,0 10.66,1.0391 14.02,2.3672 l 1.66,-5.9804 c -3.24,-1.3477 -8.89,-2.9454 -16.93,-2.9454 -15.57,0 -24.87,9.4141 -24.87,23.2774 0,13.8906 8.99,24.7305 23.71,24.7305 16.62,0 20.92,-13.125 20.92,-21.5821 0,-1.7187 -0.12,-2.9531 -0.31,-3.9101 z m -66.06,18.1679 h -13.16 V 39.7188 c 0,-5.7266 1.78,-8.9454 6.89,-8.9454 2.5,0 3.97,0.1954 5.34,0.5664 l 0.41,-6.3671 c -1.78,-0.5704 -4.59,-1.1329 -8.15,-1.1329 -4.29,0 -7.73,1.3243 -9.94,3.5157 -2.5,2.5547 -3.55,6.6367 -3.55,12.0703 v 25.0976 h -7.84 v 6.3672 h 7.84 v 8.5508 l 9,2.4844 V 70.8906 h 13.16 z m -62.91,-39.6523 -0.5,7.5234 h -0.22 c -2.3,-3.7109 -7.73,-8.5547 -16.74,-8.5547 -7.93,0 -17.44,4.0821 -17.44,20.1524 v 26.8984 h 9.2 V 45.4961 c 0,-8.7266 3.03,-14.7227 11.29,-14.7227 6.17,0 10.45,3.9063 12.13,7.6954 0.51,1.1484 0.82,2.6757 0.82,4.2734 v 28.1484 h 9.2 V 37.5273 c 0,-4.8632 0.12,-9.0429 0.43,-12.6562 z m -84.84,-1.0313 c -6.7,0 -12.54,2.6524 -15.59,7.2227 h -0.19 V 9.54688 h -9.1 V 55.8672 c 0,5.9023 -0.22,10.6484 -0.41,15.0234 h 8.14 l 0.53,-7.8945 h 0.21 c 3.66,5.6094 9.71,8.8516 17.97,8.8516 12.33,0 21.53,-9.4141 21.53,-23.3008 0,-16.543 -11.18,-24.7071 -23.09,-24.7071 z m -55.39,1.0313 h -8.98 v 25.957 c 0,8.9453 -3.66,14.1602 -10.98,14.1602 -5.35,0 -9.33,-3.5117 -11.01,-7.5 -0.41,-1.25 -0.72,-2.6758 -0.72,-4.1758 V 24.8711 h -8.98 v 27.5781 c 0,7.3242 -3.56,12.5391 -10.57,12.5391 -5.65,0 -9.92,-4.1758 -11.39,-8.3555 -0.52,-1.1523 -0.74,-2.6562 -0.74,-4.082 V 24.8711 h -8.98 v 33.5586 c 0,4.8594 -0.22,8.6484 -0.41,12.4609 h 8.04 l 0.41,-7.5234 h 0.32 c 2.83,4.375 7.51,8.4805 15.99,8.4805 6.8,0 12.01,-3.8125 14.22,-9.2188 h 0.2 c 1.58,2.6524 3.67,4.5508 5.76,5.9766 3.03,2.0859 6.29,3.2422 11.1,3.2422 6.8,0 16.72,-4.0039 16.72,-19.961 z M 1235,23.8398 c -13.58,0 -24.24,9.1211 -24.24,23.6719 0,15.293 11.17,24.336 25.07,24.336 14.54,0 24.36,-9.6133 24.36,-23.5743 0,-17.0351 -13.07,-24.4336 -25.19,-24.4336 z m -63.01,7.0274 c 5.64,0 11.29,1.0351 14.94,2.6562 l 1.78,-6.6601 c -3.25,-1.5039 -10.02,-3.0235 -18.6,-3.0235 -19.86,0 -34.7,11.4024 -34.7,32.5 0,20.1524 14.95,33.6485 36.79,33.6485 8.67,0 14.32,-1.6992 16.72,-2.8477 l -2.3,-6.7422 c -3.34,1.5274 -8.25,2.6602 -14.11,2.6602 -16.51,0 -27.49,-9.6133 -27.49,-26.4258 0,-15.7812 9.94,-25.7656 26.97,-25.7656 z M 1070.63,58.3281 V 33.0703 c 0,-10.6445 -2.4,-14.1289 -7.21,-18.2305 -5.02,-4.082 -12.12,-5.50777 -18.5,-5.50777 -6.06,0 -12.75,1.32817 -16.83,3.80857 l 2.3,6.4649 c 3.35,-2.0117 8.57,-3.711 14.84,-3.711 9.41,0 16.31,1.5899 16.31,13.2696 v 3.6015 h -0.21 c -2.72,-4.2812 -8.25,-7.6992 -16.1,-7.6992 -12.54,0 -21.53,9.6914 -21.53,22.4453 0,15.586 11.19,24.336 22.89,24.336 8.79,0 13.49,-4.1055 15.79,-7.8946 h 0.21 l 0.31,6.9375 h 8.15 c -0.31,-3.2422 -0.42,-7.0351 -0.42,-12.5625 z m -73.876,-33.457 h -9.199 v 26.5273 c 0,7.418 -3.028,13.5899 -11.703,13.5899 -5.957,0 -10.664,-3.8828 -12.336,-8.5508 -0.418,-1.0391 -0.629,-2.4609 -0.629,-3.8867 V 24.8711 h -9.196 v 33.5586 c 0,4.8594 -0.105,8.6484 -0.421,12.4609 h 8.156 l 0.523,-7.6015 h 0.207 c 2.508,4.2773 8.364,8.5586 16.727,8.5586 7,0 17.871,-3.8125 17.871,-19.5899 z m -78.801,53.8125 c -3.344,0 -5.543,2.2852 -5.543,5.1328 0,2.8555 2.301,5.2383 5.754,5.2383 3.344,0 5.641,-2.2852 5.641,-5.2383 0,-2.8476 -2.196,-5.1328 -5.852,-5.1328 z m 4.805,-53.8125 h -9.195 v 46.0195 h 9.195 z m -34.477,38.8906 c -0.941,0.1914 -1.886,0.1914 -3.136,0.1914 -6.485,0 -11.079,-4.375 -12.332,-10.6406 -0.211,-1.1562 -0.317,-2.582 -0.317,-3.9102 V 24.8711 h -9.195 v 31.6602 c 0,5.4101 -0.11,10.0781 -0.418,14.3593 h 8.047 l 0.418,-9.1211 h 0.312 c 2.301,6.168 7.945,10.0782 14.11,10.0782 0.945,0 1.675,-0.1016 2.511,-0.1993 z m -63.011,-38.8906 -0.735,5.8047 h -0.316 c -2.817,-3.6133 -8.258,-6.836 -15.469,-6.836 -10.238,0 -15.469,6.5586 -15.469,13.1993 0,11.1367 10.867,17.207 30.414,17.1093 v 0.9571 c 0,3.7109 -1.144,10.6484 -11.492,10.5468 -4.808,0 -9.723,-1.2265 -13.277,-3.4179 l -2.09,5.6094 c 4.18,2.3828 10.348,4.0039 16.723,4.0039 15.468,0 19.234,-9.6133 19.234,-18.7344 v -17.207 c 0,-4.004 0.211,-7.8868 0.73,-11.0352 z m -58.625,0 h -9.2 v 26.4297 c 0,7.4219 -3.027,13.5937 -11.703,13.5937 -5.957,0 -10.554,-3.789 -12.336,-8.2617 -0.519,-1.2344 -0.629,-2.4844 -0.629,-4.0039 V 24.8711 h -9.191 v 67.5 h 9.191 V 63.5625 h 0.211 c 1.465,2.3828 3.766,4.5742 6.586,6 2.715,1.4219 5.957,2.2852 9.406,2.2852 6.797,0 17.665,-3.8125 17.665,-19.5899 z m -95.516,-1.0313 c -6.793,0 -14.215,1.8907 -17.981,4.1797 l 2.403,6.9297 c 4.078,-2.3828 9.933,-4.1758 16.203,-4.1758 9.305,0 14.738,4.4688 14.738,10.9375 0,5.8946 -3.762,9.4102 -13.273,12.6368 -11.5,3.8046 -18.606,9.3125 -18.606,18.2578 0,9.9843 9.094,17.3828 22.785,17.3828 7.11,0 12.442,-1.5195 15.469,-3.125 l -2.508,-6.7578 c -2.195,1.2343 -6.898,3.0468 -13.273,3.0468 -9.613,0 -13.273,-5.2304 -13.273,-9.6054 0,-5.9805 4.285,-8.9297 14.003,-12.3477 11.914,-4.1953 17.872,-9.414 17.872,-18.8281 0,-9.8828 -7.938,-18.5313 -24.559,-18.5313 z m -98.859,0 c -5.536,0 -10.661,1.3243 -14.211,3.2227 l 2.195,6.2656 c 2.82,-1.5039 7.629,-3.2226 12.226,-3.2226 6.586,0 9.723,2.9531 9.723,6.8359 0,4.0039 -2.613,6.0938 -9.305,8.3789 -9.199,3.0313 -13.48,7.5 -13.48,13.0078 0,7.4258 6.691,13.5196 17.453,13.5196 5.121,0 9.617,-1.25 12.332,-2.8555 l -2.191,-6.0938 c -1.989,1.1563 -5.645,2.7539 -10.348,2.7539 -5.437,0 -8.363,-2.8476 -8.363,-6.2656 0,-3.8125 2.926,-5.5078 9.512,-7.8945 8.675,-2.9453 13.277,-6.9297 13.277,-13.7891 0,-8.164 -7.008,-13.8633 -18.82,-13.8633 z m -38.133,22.5157 h -35.539 c 0.207,-11.3047 8.047,-15.9571 17.347,-15.9571 6.59,0 10.66,1.0391 14.004,2.3672 l 1.676,-5.9804 c -3.242,-1.3477 -8.887,-2.9454 -16.934,-2.9454 -15.57,0 -24.878,9.4141 -24.878,23.2774 0,13.8906 8.992,24.7305 23.734,24.7305 16.613,0 20.902,-13.125 20.902,-21.5821 0,-1.7187 -0.109,-2.9531 -0.312,-3.9101 z m -76.399,32.3281 c -3.343,0 -5.543,2.2852 -5.543,5.1328 0,2.8555 2.301,5.2383 5.754,5.2383 3.344,0 5.641,-2.2852 5.641,-5.2383 0,-2.8476 -2.195,-5.1328 -5.852,-5.1328 z m 4.805,-53.8125 h -9.191 v 46.0195 h 9.191 z m -34.477,38.8906 c -0.941,0.1914 -1.882,0.1914 -3.132,0.1914 -6.489,0 -11.082,-4.375 -12.336,-10.6406 -0.211,-1.1562 -0.317,-2.582 -0.317,-3.9102 V 24.8711 h -9.195 v 31.6602 c 0,5.4101 -0.106,10.0781 -0.418,14.3593 h 8.047 l 0.418,-9.1211 h 0.312 c 2.301,6.168 7.946,10.0782 14.114,10.0782 0.941,0 1.671,-0.1016 2.507,-0.1993 z m -63.007,-38.8906 -0.735,5.8047 h -0.316 c -2.82,-3.6133 -8.254,-6.836 -15.469,-6.836 -10.238,0 -15.469,6.5586 -15.469,13.1993 0,11.1367 10.871,17.207 30.414,17.1093 v 0.9571 c 0,3.7109 -1.144,10.6484 -11.492,10.5468 -4.808,0 -9.722,-1.2265 -13.277,-3.4179 l -2.09,5.6094 c 4.18,2.3828 10.348,4.0039 16.727,4.0039 15.464,0 19.23,-9.6133 19.23,-18.7344 v -17.207 c 0,-4.004 0.211,-7.8868 0.734,-11.0352 z m -52.36,38.8906 c -0.941,0.1914 -1.883,0.1914 -3.133,0.1914 -6.484,0 -11.086,-4.375 -12.336,-10.6406 -0.21,-1.1562 -0.316,-2.582 -0.316,-3.9102 V 24.8711 h -9.195 v 31.6602 c 0,5.4101 -0.106,10.0781 -0.418,14.3593 h 8.047 l 0.418,-9.1211 h 0.312 c 2.301,6.168 7.945,10.0782 14.113,10.0782 0.942,0 1.668,-0.1016 2.508,-0.1993 z M 237.777,23.8398 c -7.316,0 -13.172,2.5586 -17.039,8.5547 h -0.207 l -0.527,-7.5234 h -7.836 c 0.211,3.1484 0.422,7.793 0.422,11.8984 v 55.6016 h 9.09 V 63.4688 h 0.211 c 3.238,5.1367 9.089,8.3789 17.246,8.3789 12.644,0 21.426,-9.5118 21.426,-23.4024 0,-16.4414 -11.5,-24.6055 -22.786,-24.6055 z m -60.929,54.8438 c -3.348,0 -5.543,2.2852 -5.543,5.1328 0,2.8555 2.3,5.2383 5.75,5.2383 3.343,0 5.64,-2.2852 5.64,-5.2383 0,-2.8476 -2.191,-5.1328 -5.847,-5.1328 z m 4.8,-53.8125 h -9.191 v 46.0195 h 9.191 z m -34.679,0 h -39.305 v 64.082 h 9.199 V 31.8242 h 30.106 z M 0.140625,106.719 V 3.57422 H 2545.59 V 106.719 H 0.140625"
         style="fill:#1c4f9c;fill-opacity:1;fill-rule:nonzero;stroke:none"
         id="path88" />
      <path
         d="m 386.891,496.422 c -22.032,0 -42.02,14.863 -42.02,38.437 0,23.047 19.477,38.418 42.531,38.418 22.036,0 41.504,-14.843 41.504,-38.418 0,-24.082 -19.468,-38.437 -42.015,-38.437"
         style="fill:#7d8ec8;fill-opacity:1;fill-rule:nonzero;stroke:none"
         id="path90" />
      <path
         d="m 976.418,496.422 c -22.031,0 -42.02,14.863 -42.02,38.437 0,23.047 19.473,38.418 42.532,38.418 22.031,0 41.5,-14.843 41.5,-38.418 0,-24.082 -19.469,-38.437 -42.012,-38.437"
         style="fill:#7d8ec8;fill-opacity:1;fill-rule:nonzero;stroke:none"
         id="path92" />
      <path
         d="m 2261.12,496.422 c -22.03,0 -42.01,14.863 -42.01,38.437 0,23.047 19.47,38.418 42.52,38.418 22.03,0 41.5,-14.843 41.5,-38.418 0,-24.082 -19.47,-38.437 -42.01,-38.437"
         style="fill:#7d8ec8;fill-opacity:1;fill-rule:nonzero;stroke:none"
         id="path94" />
    </g>
  </g>
</svg>
